HIERARCHY
ROOT Hips
{
	OFFSET -0.001795 -0.223333 0.028219
	CHANNELS 6 Xposition Yposition Zposition Zrotation Yrotation Xrotation 
	JOINT LeftUpLeg
	{
		OFFSET 0.069520 -0.091406 -0.006815
		CHANNELS 3 Zrotation Yrotation Xrotation
		JOINT LeftLeg
		{
			OFFSET 0.034277 -0.375199 -0.004496
			CHANNELS 3 Zrotation Yrotation Xrotation
			JOINT LeftFoot
			{
				OFFSET -0.013596 -0.397961 -0.043693
				CHANNELS 3 Zrotation Yrotation Xrotation
				JOINT LeftToe
				{
					OFFSET 0.026358 -0.055791 0.119288
					CHANNELS 3 Zrotation Yrotation Xrotation
					End Site
					{
						OFFSET 0.000000 0.000000 0.000000
					}
				}
			}
		}
	}
	JOINT RightUpLeg
	{
		OFFSET -0.067670 -0.090522 -0.004320
		CHANNELS 3 Zrotation Yrotation Xrotation
		JOINT RightLeg
		{
			OFFSET -0.038290 -0.382569 -0.008850
			CHANNELS 3 Zrotation Yrotation Xrotation
			JOINT RightFoot
			{
				OFFSET 0.015774 -0.398415 -0.042312
				CHANNELS 3 Zrotation Yrotation Xrotation
				JOINT RightToe
				{
					OFFSET -0.025372 -0.048144 0.123348
					CHANNELS 3 Zrotation Yrotation Xrotation
					End Site
					{
						OFFSET 0.000000 0.000000 0.000000
					}
				}
			}
		}
	}
	JOINT Spine
	{
		OFFSET -0.002533 0.108963 -0.026696
		CHANNELS 3 Zrotation Yrotation Xrotation
		JOINT Spine1
		{
			OFFSET 0.005487 0.135180 0.001092
			CHANNELS 3 Zrotation Yrotation Xrotation
			JOINT Spine2
			{
				OFFSET 0.001457 0.052922 0.025425
				CHANNELS 3 Zrotation Yrotation Xrotation
				JOINT Neck
				{
					OFFSET -0.002778 0.213870 -0.042857
					CHANNELS 3 Zrotation Yrotation Xrotation
					JOINT Head
					{
						OFFSET 0.005152 0.064970 0.051349
						CHANNELS 3 Zrotation Yrotation Xrotation
						End Site
						{
							OFFSET 0.000000 0.000000 0.000000
						}
					}
				}
				JOINT LeftShoulder
				{
					OFFSET 0.078845 0.121749 -0.034090
					CHANNELS 3 Zrotation Yrotation Xrotation
					JOINT LeftArm
					{
						OFFSET 0.090977 0.030469 -0.008868
						CHANNELS 3 Zrotation Yrotation Xrotation
						JOINT LeftForeArm
						{
							OFFSET 0.259612 -0.012772 -0.027456
							CHANNELS 3 Zrotation Yrotation Xrotation
							JOINT LeftHand
							{
								OFFSET 0.249234 0.008986 -0.001171
								CHANNELS 3 Zrotation Yrotation Xrotation
								End Site
								{
									OFFSET 0.000000 0.000000 0.000000
								}
							}
						}
					}
				}
				JOINT RightShoulder
				{
					OFFSET -0.081759 0.118833 -0.038615
					CHANNELS 3 Zrotation Yrotation Xrotation
					JOINT RightArm
					{
						OFFSET -0.096012 0.032551 -0.009143
						CHANNELS 3 Zrotation Yrotation Xrotation
						JOINT RightForeArm
						{
							OFFSET -0.253742 -0.013329 -0.021401
							CHANNELS 3 Zrotation Yrotation Xrotation
							JOINT RightHand
							{
								OFFSET -0.255298 0.007772 -0.005559
								CHANNELS 3 Zrotation Yrotation Xrotation
								End Site
								{
									OFFSET 0.000000 0.000000 0.000000
								}
							}
						}
					}
				}
			}
		}
	}
}
MOTION
Frames: 16
Frame Time: 0.050000
0.000000 0.940086 0.000000 -0.749945 3.762138 2.162623 6.503726 -0.175387 -0.125114 -3.890826 0.388392 -0.179930 4.262341 10.205411 4.854215 0.000000 0.000000 0.000000 -1.995820 0.189936 -1.738332 2.769392 -0.267489 4.025908 -5.075183 -13.445392 5.149638 0.000000 0.000000 0.000000 -1.235238 -0.058344 2.502901 2.909000 -0.051824 -23.516876 -1.942557 -3.478980 28.470671 -0.302065 1.376240 -23.002804 0.000000 0.000000 0.000000 -9.814794 7.280997 -3.639956 -27.228587 -8.608651 -3.014385 24.646991 -15.608683 -2.410930 0.000000 0.000000 0.000000 -0.344877 -2.726226 -0.950590 29.015753 0.716648 -4.005450 -15.935382 11.862986 -0.909875 0.000000 0.000000 0.000000 
0.000584 0.939533 -0.000757 -1.199577 3.917794 2.470290 6.897803 -0.184073 0.244351 -3.887439 0.387144 -1.508362 4.598346 10.588632 3.954208 0.000000 0.000000 0.000000 -1.885606 0.187109 -1.691260 3.164576 -0.336988 2.838884 -5.260042 -13.876746 5.486366 0.000000 0.000000 0.000000 -1.188096 -0.059205 2.500551 3.559234 -0.189380 -23.925483 -1.817208 -2.982068 28.294056 -1.195418 2.039131 -23.104111 0.000000 0.000000 0.000000 -9.746264 7.252483 -3.688388 -28.642025 -9.131306 -3.015844 22.244895 -14.716167 -1.997889 0.000000 0.000000 0.000000 0.657633 -3.886442 -1.447950 29.444198 -1.061892 -4.426283 -13.672786 15.064751 -0.987910 0.000000 0.000000 0.000000 
0.002827 0.937937 -0.001601 -1.184130 4.059369 2.274310 6.956034 -0.177342 0.558256 -4.404156 0.430682 -1.233774 5.028398 11.218490 3.302880 0.000000 0.000000 0.000000 -2.545407 0.184627 -1.639845 3.586271 -0.399518 2.527712 -4.997077 -13.357486 6.006729 0.000000 0.000000 0.000000 -0.136216 -0.104324 2.646554 2.580855 0.055994 -24.077268 -2.589643 -2.945432 29.304784 -0.464826 1.688686 -24.959224 0.000000 0.000000 0.000000 -10.662743 7.127098 -3.743215 -29.200071 -9.071227 -3.128736 22.367563 -15.771649 -2.171090 0.000000 0.000000 0.000000 2.457551 -3.327386 -1.373261 30.295152 -0.987817 -4.584484 -14.753328 13.298502 -0.917296 0.000000 0.000000 0.000000 
0.006782 0.936481 -0.002425 -1.108700 4.326389 2.330586 6.587068 -0.186386 -0.028866 -4.831775 0.470402 -0.499978 5.152517 11.201901 2.278163 0.000000 0.000000 0.000000 -2.659792 0.190991 -1.726014 3.379662 -0.374749 2.289554 -4.951274 -13.316918 6.693778 0.000000 0.000000 0.000000 -0.548038 -0.076193 2.314569 2.899302 -0.010565 -24.270903 -2.894646 -4.294292 30.064726 -1.520624 2.124389 -25.409635 0.000000 0.000000 0.000000 -12.151938 8.278612 -4.315247 -31.272978 -9.022527 -3.416870 22.278629 -18.021431 -2.366037 0.000000 0.000000 0.000000 2.894986 -2.835869 -1.253279 31.412824 -1.275227 -4.833502 -14.267897 14.279691 -1.009637 0.000000 0.000000 0.000000 
0.012546 0.935546 -0.003240 -1.070250 3.990402 2.021129 6.247604 -0.163581 0.063941 -5.336960 0.526022 -0.098991 5.266006 11.280583 1.712745 0.000000 0.000000 0.000000 -3.491909 0.192390 -1.725426 3.210706 -0.349570 2.211278 -4.950977 -13.384728 7.208108 0.000000 0.000000 0.000000 -0.636621 -0.091434 2.803980 3.448385 -0.152948 -24.161807 -3.460370 -3.783741 29.859125 -0.541287 1.598057 -25.380371 0.000000 0.000000 0.000000 -14.048272 7.938551 -4.428672 -32.306191 -8.946647 -3.518122 22.930080 -20.192199 -2.805206 0.000000 0.000000 0.000000 4.658536 -2.337633 -1.188074 32.966058 -1.327136 -5.091004 -14.821044 15.091561 -1.119820 0.000000 0.000000 0.000000 
0.019929 0.933959 -0.004235 -0.964317 4.596565 1.907002 5.281723 -0.157475 -0.345421 -5.116565 0.503442 0.545946 5.335235 11.137907 0.679185 0.000000 0.000000 0.000000 -4.343970 0.197861 -1.892284 3.224612 -0.353942 2.652784 -5.415610 -14.325334 7.383832 0.000000 0.000000 0.000000 -0.899828 -0.083618 2.856546 3.177350 -0.099861 -23.665872 -3.308560 -4.895155 30.025872 -0.398646 1.403536 -25.912911 0.000000 0.000000 0.000000 -16.014383 8.002881 -4.579874 -35.187294 -9.510454 -3.678279 23.469027 -22.829964 -3.178862 0.000000 0.000000 0.000000 6.322149 -1.733424 -1.127293 34.943278 -0.438785 -5.188345 -15.059277 15.677275 -1.215396 0.000000 0.000000 0.000000 
0.028245 0.932998 -0.005285 -1.009114 4.650939 1.973425 4.924870 -0.156866 -0.514587 -5.255661 0.513961 0.329218 5.454250 11.395512 0.781476 0.000000 0.000000 0.000000 -4.965408 0.231528 -2.497004 3.231381 -0.350635 3.447741 -5.574689 -14.649960 7.452001 0.000000 0.000000 0.000000 -0.830227 -0.101851 3.297931 3.313372 -0.157489 -23.103920 -3.409155 -4.484294 29.325417 0.168115 1.157497 -25.962994 0.000000 0.000000 0.000000 -18.675060 7.275873 -4.632087 -38.633362 -9.400695 -3.929047 23.905356 -26.593823 -3.827110 0.000000 0.000000 0.000000 9.279505 -1.569015 -1.276416 37.450216 -0.542141 -5.558700 -14.754648 18.058222 -1.361102 0.000000 0.000000 0.000000 
0.037428 0.932064 -0.006338 -1.183210 4.591569 2.116415 4.148332 -0.165124 -1.028578 -4.936033 0.484311 0.541088 5.738790 11.937047 0.718653 0.000000 0.000000 0.000000 -5.318580 0.267931 -3.173237 3.204803 -0.339434 4.674276 -5.407056 -14.294530 7.343455 0.000000 0.000000 0.000000 -1.140931 -0.098951 3.610640 3.843743 -0.302177 -22.878819 -3.281083 -4.493471 29.352416 0.327105 1.121437 -27.103400 0.000000 0.000000 0.000000 -21.487011 7.393117 -5.063192 -43.634297 -9.256615 -4.378505 22.407981 -30.322364 -3.871766 0.000000 0.000000 0.000000 11.662575 -0.911931 -1.185634 42.299441 0.138350 -6.083438 -14.747945 20.386692 -1.516974 0.000000 0.000000 0.000000 
0.047086 0.931910 -0.006964 -1.327521 4.886771 2.071697 3.726165 -0.177817 -1.377034 -5.104999 0.501851 1.103299 5.736568 11.742770 0.000052 0.000000 0.000000 0.000000 -5.495018 0.281572 -3.563892 3.304626 -0.356389 5.652119 -5.894883 -15.300488 7.725254 0.000000 0.000000 0.000000 -1.349416 -0.115344 4.388698 4.143881 -0.368767 -22.975947 -2.995120 -4.013163 29.181862 0.252661 1.310016 -27.616032 0.000000 0.000000 0.000000 -24.330579 6.490292 -5.133269 -48.475880 -9.793431 -4.448053 19.432191 -31.263217 -3.174973 0.000000 0.000000 0.000000 14.634920 -0.676444 -1.199172 47.927373 0.117194 -6.897037 -14.439131 22.173004 -1.497655 0.000000 0.000000 0.000000 
0.057059 0.931430 -0.007107 -1.374455 5.384852 2.119686 3.051100 -0.185191 -1.637676 -4.858006 0.470510 1.265175 5.594493 11.434824 -0.019013 0.000000 0.000000 0.000000 -5.938840 0.308586 -4.441219 3.517774 -0.402233 7.288723 -6.208718 -15.901405 7.500824 0.000000 0.000000 0.000000 -1.590693 -0.116818 4.816629 4.123246 -0.390065 -22.281679 -2.581447 -4.061419 28.715467 0.709452 1.159707 -28.610586 0.000000 0.000000 0.000000 -26.046708 5.893869 -5.117967 -53.935652 -10.001492 -4.586899 16.428675 -31.946289 -2.351077 0.000000 0.000000 0.000000 16.867085 -0.269273 -1.121576 53.357508 -0.406494 -7.805756 -13.252904 23.745449 -1.325438 0.000000 0.000000 0.000000 
0.067080 0.931078 -0.006533 -1.482583 5.411349 1.957006 2.702757 -0.183595 -1.708828 -4.840066 0.473208 2.300675 5.230848 10.494558 -0.769561 0.000000 0.000000 0.000000 -6.165622 0.332993 -5.208829 3.678475 -0.444157 9.434205 -6.832568 -17.168514 7.752902 0.000000 0.000000 0.000000 -1.838823 -0.126843 5.571098 4.192504 -0.382196 -22.744323 -2.450524 -3.814802 29.120373 0.459820 1.362399 -29.019895 0.000000 0.000000 0.000000 -27.228482 5.008936 -4.801076 -57.670809 -9.920156 -4.814681 12.682102 -32.333067 -1.313399 0.000000 0.000000 0.000000 18.315696 0.699013 -0.617136 57.106110 -0.784169 -8.552589 -10.176039 25.434701 -0.770391 0.000000 0.000000 0.000000 
0.076515 0.929929 -0.005451 -1.565377 5.673666 1.757589 2.365537 -0.160571 -1.439261 -4.568715 0.439775 2.607332 5.068379 9.916924 -1.512134 0.000000 0.000000 0.000000 -6.538239 0.368567 -6.636510 4.180497 -0.607512 13.218134 -7.243220 -17.981656 7.313349 0.000000 0.000000 0.000000 -2.406123 -0.108894 6.101100 4.276402 -0.421436 -22.343391 -2.091572 -3.897491 29.285394 0.789534 1.255454 -30.033558 0.000000 0.000000 0.000000 -26.788008 4.122267 -4.180851 -61.020887 -9.694767 -5.073841 9.093596 -32.522746 -0.298969 0.000000 0.000000 0.000000 18.983307 1.877797 0.025228 60.581307 -0.483568 -8.894303 -8.353444 26.601269 -0.386622 0.000000 0.000000 0.000000 
0.084819 0.928613 -0.003851 -1.572620 6.008929 1.518199 2.135810 -0.126573 -0.999707 -4.532793 0.431549 3.125242 4.775269 9.010027 -2.325986 0.000000 0.000000 0.000000 -6.313038 0.454289 -8.816476 4.164223 -0.729827 18.616484 -7.987095 -19.460473 7.177343 0.000000 0.000000 0.000000 -3.118389 -0.084497 6.896847 4.433215 -0.444495 -22.613140 -1.952944 -3.979685 29.715809 0.472950 1.494511 -30.930697 0.000000 0.000000 0.000000 -26.490776 2.837918 -3.336977 -61.802946 -9.458362 -5.286365 5.199705 -33.661794 0.808974 0.000000 0.000000 0.000000 19.429021 3.171642 0.776105 62.110673 -0.101192 -8.942984 -6.124134 28.192256 0.111544 0.000000 0.000000 0.000000 
0.091754 0.927075 -0.001064 -1.777883 6.157425 0.808608 1.715946 -0.044073 0.011039 -4.001583 0.362711 3.991653 4.926880 8.812778 -3.717386 0.000000 0.000000 0.000000 -6.101513 0.557876 -11.566890 4.850046 -1.181361 25.322310 -8.248455 -20.008211 6.227635 0.000000 0.000000 0.000000 -3.808649 -0.067206 8.126625 4.521388 -0.473135 -22.510006 -1.614086 -3.966752 30.151065 0.718093 1.394614 -31.253198 0.000000 0.000000 0.000000 -26.134286 2.135594 -2.858284 -61.980528 -10.056990 -5.028735 2.470033 -33.065875 1.551965 0.000000 0.000000 0.000000 19.656390 3.862445 1.197593 63.554952 0.737952 -8.733526 -5.034316 30.116662 0.437416 0.000000 0.000000 0.000000 
0.097181 0.927252 0.003578 -2.047250 7.354436 -0.655854 1.841623 0.070834 1.768704 -4.073407 0.354573 4.560505 4.750760 8.160177 -4.078159 0.000000 0.000000 0.000000 -5.441672 0.658484 -13.785354 4.884293 -1.647122 31.856438 -8.908552 -21.165190 7.340641 0.000000 0.000000 0.000000 -4.689731 -0.059525 10.221284 5.283695 -0.646343 -22.820611 -1.777804 -4.553683 30.968245 1.146228 1.183056 -31.478239 0.000000 0.000000 0.000000 -26.705140 1.686861 -2.631182 -59.926364 -10.108150 -5.028669 0.108399 -34.418013 2.318754 0.000000 0.000000 0.000000 19.611154 4.584145 1.667277 63.855093 2.153881 -8.114065 -3.575603 31.538869 0.882792 0.000000 0.000000 0.000000 
0.101456 0.928002 0.010675 -2.526779 8.321891 -1.614819 2.417530 0.110308 2.926536 -3.974430 0.320445 5.542962 4.776915 7.633627 -5.213782 0.000000 0.000000 0.000000 -4.875211 0.794957 -16.640993 5.638487 -2.518166 37.355007 -9.003669 -21.127202 8.704026 0.000000 0.000000 0.000000 -5.205705 -0.060126 11.511701 5.827501 -0.807395 -22.383425 -1.746006 -5.064593 31.049021 1.120064 1.190103 -31.374117 0.000000 0.000000 0.000000 -27.395933 1.365935 -2.490973 -58.202076 -10.617964 -4.737406 -1.317912 -34.282206 2.704623 0.000000 0.000000 0.000000 19.110636 5.101333 1.972550 64.180015 2.338490 -8.053330 -1.521248 33.996090 1.575959 0.000000 0.000000 0.000000 
